# Blender 3.3.1
# www.blender.org
mtllib cube.mtl
o Cube
v 0.840000 0.840000 -1.000000
v 1.000000 0.840000 -0.840000
v 0.840000 1.000000 -0.840000
v 0.840000 -1.000000 -0.840000
v 1.000000 -0.840000 -0.840000
v 0.840000 -0.840000 -1.000000
v 1.000000 0.840000 0.840000
v 0.840000 0.840000 1.000000
v 0.840000 1.000000 0.840000
v 1.000000 -0.840000 0.840000
v 0.840000 -1.000000 0.840000
v 0.840000 -0.840000 1.000000
v -0.840000 0.840000 -1.000000
v -0.840000 1.000000 -0.840000
v -1.000000 0.840000 -0.840000
v -1.000000 -0.840000 -0.840000
v -0.840000 -1.000000 -0.840000
v -0.840000 -0.840000 -1.000000
v -1.000000 0.840000 0.840000
v -0.840000 1.000000 0.840000
v -0.840000 0.840000 1.000000
v -0.840000 -1.000000 0.840000
v -1.000000 -0.840000 0.840000
v -0.840000 -0.840000 1.000000
vn -0.0000 1.0000 -0.0000
vn 1.0000 -0.0000 -0.0000
vn -0.0000 -0.0000 -1.0000
vn -0.0000 -1.0000 -0.0000
vn -1.0000 -0.0000 -0.0000
vn -0.5774 -0.5774 0.5774
vn -0.5774 0.5774 0.5774
vn -0.5774 -0.5774 -0.5774
vn -0.5774 0.5774 -0.5774
vn 0.5774 -0.5774 0.5774
vn 0.5774 0.5774 0.5774
vn 0.5774 -0.5774 -0.5774
vn 0.5774 0.5774 -0.5774
vn 0.7071 0.7071 -0.0000
vn -0.0000 0.7071 0.7071
vn -0.7071 -0.0000 0.7071
vn 0.7071 -0.0000 -0.7071
vn -0.7071 -0.0000 -0.7071
vn 0.7071 -0.0000 0.7071
vn -0.0000 -0.7071 -0.7071
vn -0.7071 -0.7071 -0.0000
vn -0.0000 0.7071 -0.7071
vn 0.7071 -0.7071 -0.0000
vn -0.0000 -0.7071 0.7071
vn -0.7071 0.7071 -0.0000
vn -0.0000 -0.0000 1.0000
vt 0.605000 0.480000
vt 0.605000 0.500000
vt 0.605000 0.520000
vt 0.645000 0.520000
vt 0.625000 0.480000
vt 0.355000 0.520000
vt 0.375000 0.520000
vt 0.395000 0.520000
vt 0.355000 0.500000
vt 0.395000 0.480000
vt 0.605000 0.750000
vt 0.605000 0.730000
vt 0.605000 0.770000
vt 0.625000 0.770000
vt 0.645000 0.730000
vt 0.375000 0.730000
vt 0.395000 0.730000
vt 0.355000 0.730000
vt 0.395000 0.770000
vt 0.355000 0.750000
vt 0.605000 0.250000
vt 0.605000 0.270000
vt 0.855000 0.520000
vt 0.625000 0.230000
vt 0.625000 0.270000
vt 0.605000 0.230000
vt 0.125000 0.520000
vt 0.395000 0.230000
vt 0.145000 0.520000
vt 0.145000 0.500000
vt 0.395000 0.270000
vt 0.605000 0.020000
vt 0.855000 0.730000
vt 0.625000 0.980000
vt 0.625000 0.020000
vt 0.605000 0.000000
vt 0.605000 0.980000
vt 0.145000 0.730000
vt 0.125000 0.730000
vt 0.395000 0.020000
vt 0.395000 0.980000
vt 0.395000 0.000000
vt 0.145000 0.750000
s 0
usemtl Material
f 17/29/1 22/38/1 11/18/1 4/6/1
f 23/40/2 16/28/2 15/26/2 19/32/2
f 12/19/3 24/41/3 21/37/3 8/13/3
f 3/4/4 9/15/4 20/33/4 14/23/4
f 5/8/5 10/17/5 7/12/5 2/3/5
f 1/1/6 2/2/6 3/5/6
f 4/6/7 5/7/7 6/9/7
f 7/11/8 8/13/8 9/14/8
f 10/16/9 11/18/9 12/20/9
f 13/21/10 14/24/10 15/26/10
f 16/27/11 17/29/11 18/30/11
f 19/32/12 20/35/12 21/36/12
f 22/38/13 23/39/13 24/43/13
f 16/27/14 23/39/14 22/38/14 17/29/14
f 6/9/15 18/30/15 17/29/15 4/6/15
f 1/1/16 6/10/16 5/8/16 2/3/16
f 23/40/17 19/32/17 21/36/17 24/42/17
f 7/12/18 10/17/18 12/19/18 8/13/18
f 15/26/19 16/28/19 18/31/19 13/22/19
f 8/13/20 21/37/20 20/34/20 9/14/20
f 2/3/21 7/12/21 9/15/21 3/4/21
f 24/43/22 12/20/22 11/18/22 22/38/22
f 19/32/23 15/26/23 14/24/23 20/35/23
f 13/22/24 1/1/24 3/5/24 14/25/24
f 10/17/25 5/8/25 4/6/25 11/18/25
f 18/31/26 6/10/26 1/1/26 13/22/26
